<?xml version="1.0" standalone="no"?>
<!DOCTYPE svg PUBLIC "-//W3C//DTD SVG 20010904//EN"
 "http://www.w3.org/TR/2001/REC-SVG-20010904/DTD/svg10.dtd">
<svg version="1.0" xmlns="http://www.w3.org/2000/svg"
 width="260.000000pt" height="260.000000pt" viewBox="0 0 260.000000 260.000000"
 preserveAspectRatio="xMidYMid meet">
<metadata>
Created by potrace 1.11, written by Peter Selinger 2001-2013
</metadata>
<g transform="translate(0.000000,260.000000) scale(0.100000,-0.100000)"
fill="#000000" stroke="none">
<path d="M40 2548 c0 -57 -2 -55 79 -100 65 -37 590 -337 961 -551 201 -116
385 -221 410 -235 25 -14 62 -36 82 -49 21 -12 39 -23 42 -23 2 0 55 -30 117
-66 63 -37 142 -81 175 -100 l61 -34 302 173 301 172 0 53 0 53 -52 -29 c-29
-17 -69 -39 -88 -50 -19 -11 -116 -66 -215 -123 -99 -57 -197 -113 -216 -123
l-36 -19 -57 32 c-31 18 -56 36 -56 40 0 5 268 163 455 267 11 6 74 42 140 81
l120 69 3 52 c2 29 1 52 -2 52 -2 0 -188 -105 -412 -234 l-409 -234 -45 26
c-87 50 -87 50 -59 62 13 6 40 20 59 31 19 12 208 120 420 241 212 122 400
230 418 240 29 18 32 24 32 70 0 40 -3 49 -15 44 -12 -4 -766 -435 -870 -497
-16 -10 -52 -30 -79 -44 -27 -15 -57 -32 -66 -37 -12 -8 -29 -2 -68 21 -29 17
-58 31 -65 31 -27 0 42 42 533 323 283 162 541 310 573 328 l57 33 0 54 0 53
-42 -25 c-370 -214 -1163 -666 -1168 -666 -4 0 -13 -7 -20 -15 -19 -23 -39
-18 -120 28 -41 24 -309 177 -595 341 -286 164 -535 307 -552 318 l-33 20 0
-54z"/>
<path d="M42 2290 l3 -52 345 -198 c190 -109 561 -322 825 -473 l480 -276 3
-530 c1 -292 4 -531 7 -531 3 0 23 11 45 25 l40 25 0 530 0 530 -37 24 c-30
19 -349 202 -563 323 -19 11 -62 36 -95 55 -33 20 -80 47 -105 60 -25 14 -117
67 -205 118 -186 107 -151 87 -468 269 -137 78 -255 145 -264 148 -11 5 -14
-4 -11 -47z"/>
<path d="M40 2040 c0 -55 1 -56 130 -127 30 -16 219 -125 420 -240 688 -396
845 -486 867 -497 l23 -11 -1 -529 c0 -290 1 -530 3 -531 2 -2 22 8 46 22 l42
25 0 527 c0 490 -1 529 -17 543 -15 12 -226 137 -393 231 -154 87 -1069 613
-1085 623 -31 22 -35 17 -35 -36z"/>
<path d="M40 1788 l0 -53 133 -76 c72 -41 248 -142 389 -223 l258 -148 -1
-442 c0 -242 0 -470 0 -507 l1 -65 45 -22 45 -22 0 500 c0 275 3 500 8 500 4
-1 32 -16 62 -34 l55 -32 2 -504 c1 -277 6 -506 10 -510 4 -4 25 -17 45 -29
l38 -23 0 501 c0 294 4 501 9 501 5 0 34 -14 65 -32 l56 -32 0 -507 0 -506 25
-11 c20 -9 30 -9 45 0 20 13 20 26 20 545 l0 532 -92 54 c-106 62 -892 513
-953 547 -22 12 -87 49 -145 83 -58 33 -108 62 -112 64 -5 2 -8 -20 -8 -49z"/>
</g>
</svg>
