<svg xmlns="http://www.w3.org/2000/svg" width="24" height="20" viewBox="0 0 24 20">
  <metadata><?xpacket begin="﻿" id="W5M0MpCehiHzreSzNTczkc9d"?>
<x:xmpmeta xmlns:x="adobe:ns:meta/" x:xmptk="Adobe XMP Core 5.6-c138 79.159824, 2016/09/14-01:09:01        ">
   <rdf:RDF xmlns:rdf="http://www.w3.org/1999/02/22-rdf-syntax-ns#">
      <rdf:Description rdf:about=""/>
   </rdf:RDF>
</x:xmpmeta>
                                                                                                    
                                                                                                    
                                                                                                    
                                                                                                    
                                                                                                    
                                                                                                    
                                                                                                    
                                                                                                    
                                                                                                    
                                                                                                    
                                                                                                    
                                                                                                    
                                                                                                    
                                                                                                    
                                                                                                    
                                                                                                    
                                                                                                    
                                                                                                    
                                                                                                    
                                                                                                    
                           
<?xpacket end="w"?></metadata>
<defs>
    <style>
      .cls-1 {
        fill: #94aeb5;
        fill-rule: evenodd;
      }
    </style>
  </defs>
  <path class="cls-1" d="M1010.99,1819.37a9.607,9.607,0,0,1-2.82.79,5.047,5.047,0,0,0,2.16-2.79,9.46,9.46,0,0,1-3.13,1.22,4.834,4.834,0,0,0-3.59-1.59,4.984,4.984,0,0,0-4.92,5.05,5.223,5.223,0,0,0,.127,1.15,13.853,13.853,0,0,1-10.147-5.28,5.155,5.155,0,0,0-.666,2.54,5.072,5.072,0,0,0,2.19,4.2,4.839,4.839,0,0,1-2.231-.62v0.06a5.023,5.023,0,0,0,3.951,4.95,4.639,4.639,0,0,1-1.3.18,5.633,5.633,0,0,1-.927-0.09,4.945,4.945,0,0,0,4.6,3.5,9.686,9.686,0,0,1-6.113,2.16,9.121,9.121,0,0,1-1.175-.07,13.707,13.707,0,0,0,7.546,2.27c9.054,0,14-7.69,14-14.36,0-.22,0-0.44-0.01-0.66a9.984,9.984,0,0,0,2.45-2.61" transform="translate(-987 -1817)"/>
</svg>
