<svg xmlns="http://www.w3.org/2000/svg" width="24" height="20.28" viewBox="0 0 24 20.28">
  <metadata><?xpacket begin="﻿" id="W5M0MpCehiHzreSzNTczkc9d"?>
<x:xmpmeta xmlns:x="adobe:ns:meta/" x:xmptk="Adobe XMP Core 5.6-c138 79.159824, 2016/09/14-01:09:01        ">
   <rdf:RDF xmlns:rdf="http://www.w3.org/1999/02/22-rdf-syntax-ns#">
      <rdf:Description rdf:about=""/>
   </rdf:RDF>
</x:xmpmeta>
                                                                                                    
                                                                                                    
                                                                                                    
                                                                                                    
                                                                                                    
                                                                                                    
                                                                                                    
                                                                                                    
                                                                                                    
                                                                                                    
                                                                                                    
                                                                                                    
                                                                                                    
                                                                                                    
                                                                                                    
                                                                                                    
                                                                                                    
                                                                                                    
                                                                                                    
                                                                                                    
                           
<?xpacket end="w"?></metadata>
<defs>
    <style>
      .cls-1 {
        fill: #94aeb5;
        fill-rule: evenodd;
      }
    </style>
  </defs>
  <path class="cls-1" d="M881.4,1819.43a0.013,0.013,0,0,0-.014-0.01l-0.009-.01-7.241-3.61a0.867,0.867,0,0,0-.153-0.06,1.316,1.316,0,0,0-.2-0.02,0.812,0.812,0,0,0-.7.38l-4.169,6.76,5.232,8.49,7.278-11.81a0.081,0.081,0,0,0-.022-0.11m-14.784,1.89v7.7l6.855,3.42-6.855-11.12m7.885,11.64,5.643,2.81c0.734,0.37,1.329.12,1.329-.57v-13.55l-6.972,11.31m-9.075-13.52-7.073-3.53a0.747,0.747,0,0,0-.359-0.1,0.554,0.554,0,0,0-.527.64v15.25a1.337,1.337,0,0,0,.664,1.08l6.23,3.11a1,1,0,0,0,.449.11,0.692,0.692,0,0,0,.659-0.8v-15.69a0.075,0.075,0,0,0-.043-0.07" transform="translate(-857.469 -1815.72)"/>
</svg>
