<svg xmlns="http://www.w3.org/2000/svg" width="17" height="24" viewBox="0 0 17 24">
  <metadata><?xpacket begin="﻿" id="W5M0MpCehiHzreSzNTczkc9d"?>
<x:xmpmeta xmlns:x="adobe:ns:meta/" x:xmptk="Adobe XMP Core 5.6-c138 79.159824, 2016/09/14-01:09:01        ">
   <rdf:RDF xmlns:rdf="http://www.w3.org/1999/02/22-rdf-syntax-ns#">
      <rdf:Description rdf:about=""/>
   </rdf:RDF>
</x:xmpmeta>
                                                                                                    
                                                                                                    
                                                                                                    
                                                                                                    
                                                                                                    
                                                                                                    
                                                                                                    
                                                                                                    
                                                                                                    
                                                                                                    
                                                                                                    
                                                                                                    
                                                                                                    
                                                                                                    
                                                                                                    
                                                                                                    
                                                                                                    
                                                                                                    
                                                                                                    
                                                                                                    
                           
<?xpacket end="w"?></metadata>
<defs>
    <style>
      .cls-1 {
        fill: #94aeb5;
        fill-rule: evenodd;
      }
    </style>
  </defs>
  <path class="cls-1" d="M918.251,1823.24a3,3,0,0,1,2.129,1.25,5.857,5.857,0,0,1,.62,3.06,9.409,9.409,0,0,1-2.54,6.8,8.593,8.593,0,0,1-6.5,2.65,8.48,8.48,0,0,1-3.026-.55,7.532,7.532,0,0,1-2.523-1.54,8,8,0,0,1-1.811-2.3,5.532,5.532,0,0,1-.6-2.48,3.452,3.452,0,0,1,.62-2.2,3.309,3.309,0,0,1,1.962-1.05,9.364,9.364,0,0,1-.369-0.97,2.4,2.4,0,0,1-.117-0.61,2.189,2.189,0,0,1,.8-1.52,2.229,2.229,0,0,1,1.5-.77,2.117,2.117,0,0,1,.637.1,3.861,3.861,0,0,1,.772.36q-1.291-3.6-1.878-5.55a11.377,11.377,0,0,1-.587-2.69,2.349,2.349,0,0,1,.537-1.63,1.855,1.855,0,0,1,1.458-.6q1.576,0,3.99,6.92,0.42,1.185.638,1.83c0.123-.34.3-0.82,0.519-1.45q2.415-6.855,4.158-6.86a1.748,1.748,0,0,1,1.367.57,2.21,2.21,0,0,1,.511,1.53,11.529,11.529,0,0,1-.562,2.65Q919.391,1820.125,918.251,1823.24Zm-12,6.72c0.157,0.19.375,0.46,0.654,0.83a2.929,2.929,0,0,0,2.046,1.5,0.912,0.912,0,0,0,.57-0.2,0.542,0.542,0,0,0,.251-0.41,2.047,2.047,0,0,0-.335-0.83,10.743,10.743,0,0,0-.922-1.3,10.05,10.05,0,0,0-1.115-1.23,1.259,1.259,0,0,0-.713-0.39,1.4,1.4,0,0,0-1.081.62,2.263,2.263,0,0,0-.5,1.46,4.035,4.035,0,0,0,.344,1.51,7.33,7.33,0,0,0,1,1.67,6.536,6.536,0,0,0,2.456,2,7.393,7.393,0,0,0,3.244.71,7.133,7.133,0,0,0,5.474-2.4,8.543,8.543,0,0,0,2.205-6.01,7.411,7.411,0,0,0-.168-1.76,1.636,1.636,0,0,0-.554-0.94,6.921,6.921,0,0,0-2.674-1.01,18.725,18.725,0,0,0-4.149-.44,1.43,1.43,0,0,0-.855.19,0.815,0.815,0,0,0-.252.68,1.7,1.7,0,0,0,1.275,1.62,12.031,12.031,0,0,0,4.124.51h0.687a0.45,0.45,0,0,1,.378.17,1.04,1.04,0,0,1,.192.52,4.275,4.275,0,0,1-1.173.6,6.076,6.076,0,0,0-1.358.67,5.836,5.836,0,0,0-1.618,1.72,3.612,3.612,0,0,0-.612,1.89,4.186,4.186,0,0,0,.26,1.31,4.534,4.534,0,0,1,.26.94v0.12l-0.034.15a1.412,1.412,0,0,1-1.165-.85,4.511,4.511,0,0,1-.428-2.13v-0.15a1,1,0,0,1-.259.16,0.817,0.817,0,0,1-.277.05,2.516,2.516,0,0,1-.285-0.02,2.368,2.368,0,0,1-.3-0.08,2.716,2.716,0,0,1,.076.36,1.978,1.978,0,0,1,.025.27,1.372,1.372,0,0,1-.487,1.05,1.672,1.672,0,0,1-1.156.43,3.224,3.224,0,0,1-2.146-1.01,2.832,2.832,0,0,1-1.09-1.99,1.1,1.1,0,0,1,.042-0.32A0.6,0.6,0,0,1,906.246,1829.96Zm5.03,0.4a0.7,0.7,0,0,0,.52-0.26,0.8,0.8,0,0,0,.234-0.55,5.571,5.571,0,0,0-.461-1.46,14.835,14.835,0,0,0-1.148-2.25,5.224,5.224,0,0,0-.989-1.24,1.453,1.453,0,0,0-.922-0.42,1.168,1.168,0,0,0-.78.43,1.239,1.239,0,0,0-.427.82,2.947,2.947,0,0,0,.419,1.19,11.965,11.965,0,0,0,1.123,1.68,9,9,0,0,0,1.392,1.51A1.856,1.856,0,0,0,911.276,1830.36Zm1.643-7.96-1.811-5.15a15.059,15.059,0,0,0-1.089-2.56,1.058,1.058,0,0,0-.839-0.6,0.719,0.719,0,0,0-.57.26,1.085,1.085,0,0,0-.218.71,10.522,10.522,0,0,0,.587,2.64q0.586,1.875,1.761,4.93a0.567,0.567,0,0,1,.285-0.26,1.376,1.376,0,0,1,.5-0.07c0.066,0,.2,0,0.4.01S912.461,1822.35,912.919,1822.4Zm1.894,4.99a9.676,9.676,0,0,1-1.366-.15,6.992,6.992,0,0,1-1.232-.33c0.179,0.35.338,0.71,0.478,1.06a9.019,9.019,0,0,1,.343,1.04,8.386,8.386,0,0,1,.847-0.9A7.151,7.151,0,0,1,914.813,1827.39Zm2.23-4.43c0.749-2,1.333-3.66,1.752-4.96a12.052,12.052,0,0,0,.629-2.4,1.189,1.189,0,0,0-.209-0.74,0.713,0.713,0,0,0-.579-0.26,1.291,1.291,0,0,0-.956.77,12.567,12.567,0,0,0-1.072,2.46l-1.677,4.76Z" transform="translate(-904 -1813)"/>
</svg>
