<svg xmlns="http://www.w3.org/2000/svg" width="61" height="49" viewBox="0 0 61 49">
  <metadata><?xpacket begin="﻿" id="W5M0MpCehiHzreSzNTczkc9d"?>
<x:xmpmeta xmlns:x="adobe:ns:meta/" x:xmptk="Adobe XMP Core 5.6-c138 79.159824, 2016/09/14-01:09:01        ">
   <rdf:RDF xmlns:rdf="http://www.w3.org/1999/02/22-rdf-syntax-ns#">
      <rdf:Description rdf:about=""/>
   </rdf:RDF>
</x:xmpmeta>
                                                                                                    
                                                                                                    
                                                                                                    
                                                                                                    
                                                                                                    
                                                                                                    
                                                                                                    
                                                                                                    
                                                                                                    
                                                                                                    
                                                                                                    
                                                                                                    
                                                                                                    
                                                                                                    
                                                                                                    
                                                                                                    
                                                                                                    
                                                                                                    
                                                                                                    
                                                                                                    
                           
<?xpacket end="w"?></metadata>
<defs>
    <style>
      .cls-1 {
        fill: #00c6f8;
        opacity: 0.5;
      }

      .cls-1, .cls-2 {
        fill-rule: evenodd;
      }

      .cls-2 {
        fill: #33d1f9;
      }
    </style>
  </defs>
  <path class="cls-1" d="M274.134,704.241a1.675,1.675,0,0,1,1.733,0L294.4,715.457a1.243,1.243,0,0,1,.6,1.063v1.527a0.832,0.832,0,0,1-.836.829h-2.5a0.829,0.829,0,0,0-.834.826S291,723.544,291,727c0,0.081-4-.081-4,0v8c0,0.15,4.993-.228,5,0a2.677,2.677,0,0,0,0,1h-4a1.964,1.964,0,0,0-1,1c0,0.1-1,.566-1,1v3c0,0.458.462,1,0,1H255.834a0.83,0.83,0,0,1-.834-0.826V738.4a1.239,1.239,0,0,1,.6-1.06l3.168-1.917a0.826,0.826,0,0,0,.4-0.705V719.7a0.831,0.831,0,0,0-.834-0.827h-2.5a0.829,0.829,0,0,1-.833-0.826v-1.531a1.238,1.238,0,0,1,.6-1.06Zm7.533,30.319a0.829,0.829,0,0,0,.833.826h3.334a0.829,0.829,0,0,0,.833-0.826V719.7a0.83,0.83,0,0,0-.833-0.827H282.5a0.83,0.83,0,0,0-.833.827V734.56Zm-9.166,0a0.829,0.829,0,0,0,.833.826h3.333a0.83,0.83,0,0,0,.834-0.826V719.7a0.831,0.831,0,0,0-.834-0.827h-3.333a0.83,0.83,0,0,0-.833.827V734.56Zm2.5-19.82a2.478,2.478,0,1,0-2.5-2.478,2.489,2.489,0,0,0,2.5,2.478h0Zm-11.666,19.82a0.829,0.829,0,0,0,.833.826H267.5a0.829,0.829,0,0,0,.833-0.826V719.7a0.83,0.83,0,0,0-.833-0.827h-3.334a0.83,0.83,0,0,0-.833.827V734.56Z" transform="translate(-255 -704)"/>
  <path class="cls-2" d="M314.636,753H287.364A1.364,1.364,0,0,1,286,751.636v-5.454a1.364,1.364,0,0,1,1.364-1.364h27.272A1.364,1.364,0,0,1,316,746.182v5.454A1.364,1.364,0,0,1,314.636,753Zm0-8.909H287.364A1.364,1.364,0,0,1,286,742.727v-5.454a1.364,1.364,0,0,1,1.364-1.364h27.272A1.364,1.364,0,0,1,316,737.273v5.454A1.364,1.364,0,0,1,314.636,744.091Zm0-8.909H287.364A1.364,1.364,0,0,1,286,733.818v-5.454A1.364,1.364,0,0,1,287.364,727h27.272A1.364,1.364,0,0,1,316,728.364v5.454A1.364,1.364,0,0,1,314.636,735.182ZM289,729h2a1,1,0,0,1,1,1v2a1,1,0,0,1-1,1h-2a1,1,0,0,1-1-1v-2A1,1,0,0,1,289,729Zm0,9h2a1,1,0,0,1,1,1v2a1,1,0,0,1-1,1h-2a1,1,0,0,1-1-1v-2A1,1,0,0,1,289,738Zm0,9h2a1,1,0,0,1,1,1v2a1,1,0,0,1-1,1h-2a1,1,0,0,1-1-1v-2A1,1,0,0,1,289,747Z" transform="translate(-255 -704)"/>
</svg>
