<svg xmlns="http://www.w3.org/2000/svg" width="109.813" height="35" viewBox="0 0 109.813 35">
  <metadata><?xpacket begin="﻿" id="W5M0MpCehiHzreSzNTczkc9d"?>
<x:xmpmeta xmlns:x="adobe:ns:meta/" x:xmptk="Adobe XMP Core 5.6-c138 79.159824, 2016/09/14-01:09:01        ">
   <rdf:RDF xmlns:rdf="http://www.w3.org/1999/02/22-rdf-syntax-ns#">
      <rdf:Description rdf:about=""/>
   </rdf:RDF>
</x:xmpmeta>
                                                                                                    
                                                                                                    
                                                                                                    
                                                                                                    
                                                                                                    
                                                                                                    
                                                                                                    
                                                                                                    
                                                                                                    
                                                                                                    
                                                                                                    
                                                                                                    
                                                                                                    
                                                                                                    
                                                                                                    
                                                                                                    
                                                                                                    
                                                                                                    
                                                                                                    
                                                                                                    
                           
<?xpacket end="w"?></metadata>
<defs>
    <style>
      .cls-1, .cls-2, .cls-3 {
        fill: #33d1f9;
        fill-rule: evenodd;
      }

      .cls-2 {
        opacity: 0.5;
      }

      .cls-3 {
        opacity: 0.8;
      }
    </style>
  </defs>
  <path class="cls-1" d="M820.3,746h-40.6A1.68,1.68,0,0,1,778,744.333V722.658a1.68,1.68,0,0,1,1.692-1.667h40.6a1.68,1.68,0,0,1,1.692,1.667v21.675A1.68,1.68,0,0,1,820.3,746ZM818.6,729.327a5.038,5.038,0,0,1-5.075-5h-27.07a5.038,5.038,0,0,1-5.075,5v9.17a5.052,5.052,0,0,1,5,4.169h27.222a5.052,5.052,0,0,1,5-4.169v-9.17Zm-18.61,10.838c-3.093,0-5.076-2.606-5.076-6.669s1.983-6.669,5.076-6.669,5.076,2.605,5.076,6.669-1.983,6.669-5.076,6.669h0Z" transform="translate(-750.031 -711)"/>
  <path class="cls-2" d="M830.3,736h-9.358c-0.8,0,.062-14,0.062-14-0.934,0-33,1.921-33,1V712.658a1.68,1.68,0,0,1,1.692-1.667h40.6a1.68,1.68,0,0,1,1.692,1.667v21.675A1.68,1.68,0,0,1,830.3,736ZM828.6,719.327a5.038,5.038,0,0,1-5.075-5h-27.07a5.038,5.038,0,0,1-5.075,5v2.36A3.9,3.9,0,0,1,791,723c2.475,0,29.589-3.4,30-1,0,0-.382,10.666.75,10.666h1.855a5.052,5.052,0,0,1,5-4.169v-9.17ZM810,724c-3.093,0-5.082.184-5.082-.5,0-4.064,1.983-6.669,5.076-6.669s5.076,2.605,5.076,6.669c0,0.563-1.977.5-5.07,0.5h0Z" transform="translate(-750.031 -711)"/>
  <path class="cls-3" d="M852.074,732.049a1,1,0,0,1-1.408,0,0.986,0.986,0,0,1,0-1.4l5.782-5.739H838.929a0.989,0.989,0,1,1,0-1.978h17.5l-5.766-5.722a0.984,0.984,0,0,1,0-1.4,1,1,0,0,1,1.408,0l7.475,7.419a0.984,0.984,0,0,1,0,1.4h0Z" transform="translate(-750.031 -711)"/>
  <path class="cls-3" d="M757.813,742.2a1,1,0,1,0,1.414-1.414l-5.8-5.8h17.581a1,1,0,0,0,0-2H753.441l5.786-5.786a1,1,0,1,0-1.414-1.415l-7.5,7.5a1,1,0,0,0,0,1.413,0,0,0,0,0,0,0Z" transform="translate(-750.031 -711)"/>
</svg>
