<?xml version="1.0" encoding="utf-8"?>
<!-- Generator: Adobe Illustrator 19.1.0, SVG Export Plug-In . SVG Version: 6.00 Build 0)  -->
<svg version="1.1" id="Ebene_1" xmlns="http://www.w3.org/2000/svg" xmlns:xlink="http://www.w3.org/1999/xlink" x="0px" y="0px"
	 viewBox="0 0 823.1 215.2" style="enable-background:new 0 0 823.1 215.2;" xml:space="preserve">
<style type="text/css">
	.st0{fill:#FFFFFF;}
</style>
<g>
	<path class="st0" d="M208.2,0L104.1,60.1L0,0v8.7l102,58.9c0.1,0.1,0.2,0.1,0.3,0.2l17.8,10.3c0.1,0.1,0.2,0.1,0.3,0.2l36.1,20.8
		c0,0,0,0,0,0c0.1,0,0.1,0.1,0.2,0.1c0,0,0,0,0,0c0,0,0.1,0,0.1,0.1c0,0,0.1,0,0.1,0c0,0,0,0,0,0c0.5,0.2,0.9,0.3,1.4,0.3
		c0,0,0,0,0,0c0,0,0,0,0,0c0.5,0,0.9-0.1,1.4-0.3c0,0,0,0,0,0c0,0,0.1,0,0.1,0c0,0,0.1,0,0.1-0.1c0,0,0,0,0.1,0
		c0.1,0,0.1-0.1,0.2-0.1c0,0,0,0,0,0l47.8-27.6v-8.7l-49.7,28.7l-10.6-6.1l60.3-34.8v-8.7L140.3,81l-10.6-6.1l78.4-45.3v-8.7
		l-86,49.6l-10.6-6.1l96.5-55.7V0z"/>
	<path class="st0" d="M136.6,196.5l7.6-4.4v-85.8c0,0,0-0.1,0-0.1c0-0.1,0-0.1,0-0.2c0-0.1,0-0.1,0-0.2c0-0.1,0-0.1,0-0.2
		c0-0.1,0-0.1,0-0.2c0-0.1,0-0.1,0-0.2c0-0.1,0-0.1-0.1-0.2c0,0,0-0.1-0.1-0.1c0-0.1-0.1-0.1-0.1-0.2c0,0,0-0.1-0.1-0.1
		c0-0.1-0.1-0.1-0.1-0.2c0-0.1-0.1-0.1-0.1-0.2c0,0-0.1-0.1-0.1-0.1c0-0.1-0.1-0.1-0.1-0.2c0,0-0.1-0.1-0.1-0.1
		c0-0.1-0.1-0.1-0.1-0.2c0,0-0.1-0.1-0.1-0.1c0,0-0.1-0.1-0.2-0.1c0,0-0.1-0.1-0.1-0.1c0,0-0.1-0.1-0.1-0.1c-0.1,0-0.1-0.1-0.2-0.1
		c0,0-0.1,0-0.1-0.1L0,20.9v8.7l136.6,78.8V196.5z"/>
	<path class="st0" d="M118.4,207l7.6-4.4v-85.8c0,0,0-0.1,0-0.1c0-0.1,0-0.2,0-0.2c0-0.1,0-0.1,0-0.2c0-0.1,0-0.1,0-0.2
		c0-0.1,0-0.1,0-0.2c0-0.1,0-0.1,0-0.2c0-0.1,0-0.1-0.1-0.2c0,0,0-0.1-0.1-0.1c0-0.1-0.1-0.1-0.1-0.2c0-0.1,0-0.1-0.1-0.2
		c0-0.1-0.1-0.1-0.1-0.2c0-0.1-0.1-0.1-0.1-0.2c0,0-0.1-0.1-0.1-0.1c0-0.1-0.1-0.1-0.1-0.2c0,0-0.1-0.1-0.1-0.1
		c0-0.1-0.1-0.1-0.2-0.2c0,0-0.1-0.1-0.1-0.1c-0.1,0-0.1-0.1-0.2-0.1c0,0-0.1-0.1-0.1-0.1c0,0-0.1-0.1-0.2-0.1
		c-0.1,0-0.1-0.1-0.2-0.1c0,0-0.1,0-0.1-0.1L0,41.8v8.7L118.4,119V207z"/>
	<path class="st0" d="M64.1,192.1l7.6,4.4v-83.6l10.6,6.1v83.6l7.6,4.4v-83.6l10.6,6.1V213l3.8,2.2l3.7-2.2v-85.8c0,0,0-0.1,0-0.1
		c0-0.1,0-0.2,0-0.2c0-0.1,0-0.1,0-0.2c0-0.1,0-0.1,0-0.2c0-0.1,0-0.1,0-0.2c0-0.1,0-0.1,0-0.2c0-0.1,0-0.1-0.1-0.2
		c0,0,0-0.1-0.1-0.1c0-0.1-0.1-0.1-0.1-0.2c0-0.1,0-0.1-0.1-0.2c0-0.1-0.1-0.1-0.1-0.2c0-0.1-0.1-0.1-0.1-0.2c0,0-0.1-0.1-0.1-0.1
		c0-0.1-0.1-0.1-0.1-0.2c0,0-0.1-0.1-0.1-0.1c0-0.1-0.1-0.1-0.1-0.2c0,0-0.1-0.1-0.1-0.1c-0.1,0-0.1-0.1-0.2-0.1
		c0,0-0.1-0.1-0.1-0.1c0,0-0.1-0.1-0.1-0.1c-0.1,0-0.1-0.1-0.2-0.1c0,0-0.1,0-0.1-0.1L0,62.8v8.7l64.1,37V192.1z"/>
</g>
<g>
	<path class="st0" d="M306.3,91v41.3h-8.2V91h-14.8v-7.5h37.9V91H306.3z"/>
	<path class="st0" d="M391.5,99.4c0,8.1-3.5,13.1-10.6,15.2l12.8,17.8h-10.5l-11.7-16.4h-10.8v16.4h-8.2V83.5h18.2
		c7.5,0,12.8,1.3,16,3.8C389.9,89.8,391.5,93.8,391.5,99.4z M380.5,106.3c1.7-1.4,2.5-3.8,2.5-7c0-3.2-0.9-5.4-2.6-6.6
		c-1.7-1.2-4.8-1.8-9.2-1.8h-10.5v17.5H371C375.7,108.4,378.8,107.7,380.5,106.3z"/>
	<path class="st0" d="M460.1,83.5v7.8H434v12.9h23.4v7.3H434v13.1h26.9v7.8h-35.2V83.5H460.1z"/>
	<path class="st0" d="M500.7,121.2l-4.9,11.1H487l21.5-48.9h8.8l21.5,48.9h-8.8l-4.9-11.1H500.7z M521.9,113.6L513,93.5l-8.9,20.1
		H521.9z"/>
	<path class="st0" d="M582.8,89.9c-2.4,0-4.4,0.5-5.9,1.5c-1.5,1-2.3,2.5-2.3,4.4c0,2,0.8,3.5,2.3,4.5c1.5,1,4.8,2.2,9.8,3.4
		c5,1.2,8.8,2.9,11.3,5.1s3.8,5.4,3.8,9.7c0,4.3-1.6,7.7-4.8,10.4c-3.2,2.7-7.4,4-12.7,4c-7.6,0-14.4-2.6-20.3-7.9l5.2-6.2
		c4.9,4.3,10.1,6.4,15.4,6.4c2.7,0,4.8-0.6,6.3-1.7c1.6-1.1,2.3-2.7,2.3-4.5c0-1.9-0.7-3.4-2.2-4.4c-1.5-1-4-2-7.6-2.9
		c-3.6-0.9-6.3-1.7-8.2-2.4c-1.9-0.7-3.5-1.7-5-2.8c-2.9-2.2-4.3-5.5-4.3-10.1c0-4.5,1.6-8,4.9-10.5s7.4-3.7,12.2-3.7
		c3.1,0,6.2,0.5,9.3,1.5c3.1,1,5.7,2.5,8,4.3l-4.4,6.2c-1.4-1.3-3.4-2.4-5.9-3.2C587.7,90.3,585.2,89.9,582.8,89.9z"/>
	<path class="st0" d="M645.4,121.2c2.2,2.6,5.3,3.9,9.1,3.9c3.8,0,6.9-1.3,9.1-3.9c2.2-2.6,3.4-6.2,3.4-10.6V83.5h8.2v27.4
		c0,7-1.9,12.5-5.8,16.3c-3.9,3.8-8.8,5.7-14.9,5.7c-6.1,0-11-1.9-14.9-5.7c-3.9-3.8-5.8-9.2-5.8-16.3V83.5h8.2v27.1
		C642.1,115,643.2,118.6,645.4,121.2z"/>
	<path class="st0" d="M749.5,99.4c0,8.1-3.5,13.1-10.6,15.2l12.8,17.8h-10.5l-11.7-16.4h-10.8v16.4h-8.2V83.5h18.2
		c7.5,0,12.8,1.3,16,3.8C747.9,89.8,749.5,93.8,749.5,99.4z M738.6,106.3c1.7-1.4,2.5-3.8,2.5-7c0-3.2-0.9-5.4-2.6-6.6
		c-1.7-1.2-4.8-1.8-9.2-1.8h-10.5v17.5H729C733.7,108.4,736.9,107.7,738.6,106.3z"/>
	<path class="st0" d="M818.1,83.5v7.8H792v12.9h23.4v7.3H792v13.1h26.9v7.8h-35.2V83.5H818.1z"/>
</g>
</svg>
